<svg height="241.522946" viewBox="0 0 599.89996 350.39999" width="414.039336" xmlns="http://www.w3.org/2000/svg" xmlns:xlink="http://www.w3.org/1999/xlink"><clipPath id="a"><path d="m468.5 168.3 1.9 4c3.5-17.2 24.1-15.2 24.1-15.2 23.9 2.1 45.3 30 56.8 48.1 17.9 28.2 30 61.7 30.6 95.4 0 .6.5.7.9.5.8-.6 1.6-1.1 2.3-1.7.9-.7 1.9-1.5 2.8-2.2.6-.5 1.3-1.1 1.9-1.6.4-.4.7-1 .7-2-1-36.5-12.1-73-34.9-101.8-11.3-14.3-31.9-34.1-52.6-38.1 0 0-2.8-.6-6.9-.6-7.6.1-20 2.3-27.6 15.2"/></clipPath><linearGradient id="b"><stop offset="0" stop-color="#e6e1db"/><stop offset=".3846" stop-color="#e6e1db"/><stop offset="1" stop-color="#715f4e"/></linearGradient><linearGradient id="c" gradientTransform="matrix(12.8058 0 0 -12.8058 71.0348 9847.1533)" gradientUnits="userSpaceOnUse" x1="31.040501" x2="40.578999" xlink:href="#b" y1="751.20862" y2="751.20862"/><clipPath id="d"><path d="m444.2 240c5.6 43.6 42.8 77.2 88 77.2 12.2 0 23.7-2.4 34.3-6.9 1.3-.6 1.2-1 .5-1.2-54.8 1.1-103-33.3-122.3-70.9-.1-.1-.2-.1-.3-.1-.3.1-.3.9-.2 1.9"/></clipPath><linearGradient id="e"><stop offset="0" stop-color="#fccf00"/><stop offset=".6209" stop-color="#e50020"/><stop offset="1" stop-color="#80167d"/></linearGradient><linearGradient id="f" gradientTransform="matrix(-12.8796 0 0 12.8796 183.5184 -9948.1797)" gradientUnits="userSpaceOnUse" x1="-29.3444" x2="-19.805401" xlink:href="#e" y1="793.95728" y2="793.95728"/><clipPath id="g"><path d="m475.1 168.5-.2.2s-10.8 7.8-18.3 18.3-10.7 20.4-11.9 26.2c-.5 2.7-.8 4.6-.9 5.8v1.3.2.1c0 .4.2.6.4.7.5.3 1.9-.5 2.8-1 .7-.4 3.1-1.6 5.2-2.5 6.7-2.9 14.3-5.3 22.2-7-.4-.7-1-1.3-1.4-2-3.2-4.8-5.7-10.4-7.1-15.7-5.6 3.6-10.9 7.9-15.9 13 21.5-48.8 118.6-81.4 166.8.4.5.8 1 .8 1 .1 0-.3-.1-.7-.1-1.1-.1-.3-.2-.7-.3-1-.5-1.6-2.2-6-3.5-8.8-15.9-32.6-46.6-47.5-77.9-47.5-21.6 0-43.5 7.1-60.9 20.3"/></clipPath><linearGradient id="h" gradientTransform="matrix(18.2429 0 0 -18.2429 46.6974 14034.105)" gradientUnits="userSpaceOnUse" x1="21.771099" x2="31.310699" xlink:href="#e" y1="759.80139" y2="759.80139"/><clipPath id="i"><path d="m482.4 158.4c-3.3 1-6.5 2.5-9.8 4.7-.5.5-1 .9-1.5 1.4-10.3 12.8-7.1 30.6 1.9 44.2 10.7 16.1 29.2 29 45.8 38.4 17.7 10 36.8 17.6 56.5 22.4 9.3 2.2 17.6 2.7 27.1 3.4 1.4.1 2.8.1 4.3.2 1.4 0 2.4-.6 2.9-1.5.4-.7 1.2-2.2 1.2-2.2.3-.5 2-4.2 2.6-5.3-31.7-1.4-62.1-15.3-89.2-30.8-14.5-8.4-29.9-17.1-41.2-29.7-7.8-8.7-14.2-20.7-12.4-32.4 1.2-5.1 5.6-10.6 11.8-12.8z"/></clipPath><linearGradient id="j" gradientTransform="matrix(15.5854 0 0 -15.5854 59.5134 11988.713)" gradientUnits="userSpaceOnUse" x1="25.997101" x2="35.536201" xlink:href="#b" y1="755.38348" y2="755.38348"/><clipPath id="k"><path d="m473.3 188.8c2.3 5.4 5.8 10.5 9.6 14.7 1.6 1.8 3.5 3.7 5.1 5.1 46.6-5.1 103.2 12 120.6 63.9.5-.3.9-.7 1.1-1.1 7-12.7 11.1-27.3 11.1-42.8 0-.3 0-.6 0-.8-.1-1.9-1.6-5.3-4.2-8.5-21-23.4-58.9-41.4-96.4-41.4-16.2 0-32.2 3.3-46.9 10.9"/></clipPath><linearGradient id="l" gradientTransform="matrix(18.3975 0 0 -18.3975 46.113 14157.525)" gradientUnits="userSpaceOnUse" x1="21.636" x2="31.1751" xlink:href="#e" y1="757.29303" y2="757.29303"/><g transform="translate(-20.8 -148.2)"><path clip-path="url(#a)" d="m468.5 153.2h122.1v148.3h-122.1z" fill="url(#c)"/><path clip-path="url(#d)" d="m444.10001 238.2h123.6v79h-123.6z" fill="url(#f)"/><path clip-path="url(#g)" d="m443.89999 124.6h174v97h-174z" fill="url(#h)"/><path clip-path="url(#i)" d="m460.79999 158.39999h152.5v114.6h-152.5z" fill="url(#j)"/><path clip-path="url(#k)" d="m473.29999 177.89999h147.39999v94.699997h-147.39999z" fill="url(#l)"/><g fill="#705e4e"><path d="m51.6 479.3c0 2.3.1 4.6.5 6.5h-4.5l-.4-3.4h-.2c-1.5 2.1-4.4 4-8.3 4-5.5 0-8.2-3.8-8.2-7.7 0-6.5 5.8-10.1 16.2-10v-.6c0-2.2-.6-6.2-6.1-6.2-2.5 0-5.1.8-7 2l-1.1-3.2c2.2-1.4 5.5-2.4 8.9-2.4 8.2 0 10.2 5.6 10.2 11zm-4.7-7.2c-5.4-.1-11.4.8-11.4 6.1 0 3.2 2.1 4.7 4.6 4.7 3.5 0 5.7-2.2 6.5-4.5.2-.5.3-1.1.3-1.6z"/><path d="m64.6 451.3c.1 1.7-1.2 3-3.1 3-1.7 0-3-1.4-3-3 0-1.7 1.3-3.1 3.1-3.1s3 1.3 3 3.1m-5.5 7.5h4.9v27h-4.9z"/><path d="m72.8 467.2c0-3.2-.1-5.9-.2-8.4h4.3l.2 5.3h.2c1.2-3.6 4.2-5.9 7.5-5.9.6 0 1 .1 1.4.2v4.6c-.5-.1-1-.2-1.7-.2-3.5 0-5.9 2.6-6.6 6.3-.1.7-.2 1.5-.2 2.3v14.4h-4.9z"/><path d="m91.6 467.7c0-3.5-.1-6.2-.2-8.8h4.4l.2 4.6h.1c2-3.3 5.2-5.2 9.6-5.2 6.5 0 11.4 5.5 11.4 13.7 0 9.7-5.9 14.5-12.3 14.5-3.6 0-6.7-1.6-8.3-4.2h-.1v14.7h-4.9v-29.3zm4.8 7.1c0 .7.1 1.4.2 2 .9 3.4 3.8 5.7 7.4 5.7 5.2 0 8.2-4.2 8.2-10.4 0-5.4-2.8-10-8-10-3.3 0-6.5 2.4-7.4 6.1-.2.6-.3 1.3-.3 2v4.6z"/><path d="m147.1 472.1c0 10-6.9 14.3-13.4 14.3-7.3 0-12.9-5.3-12.9-13.9 0-9 5.9-14.3 13.4-14.3 7.7 0 12.9 5.7 12.9 13.9m-21.4.3c0 5.9 3.4 10.4 8.2 10.4 4.7 0 8.2-4.4 8.2-10.5 0-4.6-2.3-10.3-8.1-10.3-5.8-.1-8.3 5.3-8.3 10.4"/><path d="m152.5 467.2c0-3.2-.1-5.9-.2-8.4h4.3l.2 5.3h.2c1.2-3.6 4.2-5.9 7.5-5.9.6 0 1 .1 1.4.2v4.6c-.5-.1-1-.2-1.7-.2-3.5 0-5.9 2.6-6.6 6.3-.1.7-.2 1.5-.2 2.3v14.4h-4.8v-18.6z"/><path d="m179.3 452.4v6.5h7v3.7h-7v14.6c0 3.3 1 5.2 3.7 5.2 1.3 0 2.1-.1 2.8-.3l.2 3.7c-.9.4-2.4.7-4.3.7-2.3 0-4.1-.8-5.3-2.1-1.4-1.4-1.9-3.8-1.9-7v-14.7h-4.2v-3.7h4.2v-5z"/><path d="m588.1 341.6c-5 3.6-10.3 6.9-16 9.6-.9.4-1.3 1.5-1.3 2.3v71h19.8v-81.2c.1-4-2.5-1.7-2.5-1.7"/><path d="m103.9 388.5-.6.9c-8.5 13.9-17.9 19.8-31 19.8-18.4 0-31.5-12.6-31.6-30.1 0-17.6 13.2-30.2 31.6-30.3 12.3 0 21.7 5.6 28.5 16.8l.6.9 16.6-10.7-.7-.9c-11.2-15.4-26.5-23.3-45-23.3-29.7.1-51.4 20-51.5 47.4.1 27.3 21.8 47.2 51.5 47.2h.1c20.1 0 36.4-9.2 46.8-26.4l.5-.8z"/><path d="m200.3 366.5h-45.5-.1v-.1-32.8h-19.8v90.7h19.8v-40.8h45.8v40.8h19.5v-90.7h-19.5v32.9z"/><path d="m338.1 422.7-46.1-89.1h-14.2l-46.4 90.6h20.5l11.5-22.3v-.1h43.2v.1l11.8 22.3h20.5zm-53.2-62.7.1.1 12.8 24.4.1.2h-25.7l.1-.2 12.6-24.4z"/><path d="m415.4 389.3-53.3-55.6h-11.9v90.6h19.6v-56l.3.3 53.4 55.7h11.7v-90.6h-19.6v55.9z"/><path d="m505.6 390.7h25v.2 6c-6.5 8.4-14.9 12.4-25.9 12.4-18.4 0-31.5-12.6-31.5-30.1 0-17.6 13.2-30.2 31.5-30.2 12.3 0 21.7 5.6 28.5 16.8l.5.9 16.6-10.6-.6-.9c-11.2-15.4-26.5-23.3-45-23.3-29.7.1-51.4 20-51.5 47.4 0 27.3 21.8 47.2 51.5 47.2 19.5 0 35.3-8.3 45.4-23.9l.2-.3v-28.6h-44.6v17z"/><path d="m203.6 481.4c1.6.9 4.2 1.9 6.7 1.9 3.6 0 5.3-1.8 5.3-4.1 0-2.4-1.4-3.7-5.1-5.1-5-1.8-7.4-4.5-7.4-7.9 0-4.5 3.7-8.1 9.6-8.1 2.8 0 5.3.7 6.8 1.7l-1.2 3.6c-1.1-.6-3.1-1.6-5.7-1.6-3 0-4.6 1.7-4.6 3.8 0 2.3 1.6 3.4 5.2 4.8 4.8 1.8 7.3 4.2 7.3 8.4 0 4.9-3.9 8.4-10.3 8.4-3 0-5.9-.8-7.8-2z"/><path d="m229 453.6c-1.9 0-3.2-1.5-3.2-3.3s1.3-3.2 3.3-3.2c1.9 0 3.2 1.4 3.2 3.2 0 1.9-1.3 3.3-3.3 3.3zm-2.4 5.2h5.1v27.8h-5.1z"/><path d="m239.5 466.3c0-2.9-.1-5.2-.2-7.5h4.5l.3 4.5h.1c1.4-2.6 4.6-5.2 9.2-5.2 3.8 0 9.8 2.3 9.8 11.8v16.6h-5.1v-16c0-4.5-1.7-8.3-6.4-8.3-3.3 0-5.9 2.4-6.8 5.2-.2.6-.3 1.5-.3 2.3v16.8h-5.1z"/><path d="m294.7 482.5c0 6.4-1.3 10.3-4 12.8-2.8 2.5-6.7 3.3-10.2 3.3-3.3 0-7-.8-9.2-2.3l1.3-3.9c1.8 1.2 4.7 2.2 8.2 2.2 5.2 0 9-2.7 9-9.8v-3h-.1c-1.5 2.6-4.5 4.7-8.8 4.7-6.9 0-11.8-5.9-11.8-13.6 0-9.4 6.1-14.7 12.6-14.7 4.8 0 7.4 2.5 8.7 4.8h.1l.2-4.1h4.5c-.2 2-.2 4.2-.2 7.6v16zm-5.1-12.8c0-.8-.1-1.5-.3-2.2-.9-3-3.3-5.4-7.1-5.4-4.8 0-8.3 4.1-8.3 10.6 0 5.4 2.8 10 8.2 10 3.1 0 6-1.9 7-5.2.3-.8.4-1.8.4-2.7v-5.1z"/><path d="m322.1 479.9c0 2.4.1 4.8.4 6.7h-4.5l-.5-3.5h-.2c-1.5 2.2-4.5 4.1-8.5 4.1-5.6 0-8.5-4-8.5-8 0-6.7 6-10.4 16.7-10.3v-.6c0-2.3-.6-6.5-6.3-6.4-2.6 0-5.3.8-7.3 2.1l-1.1-3.4c2.3-1.4 5.7-2.4 9.2-2.4 8.6 0 10.6 5.8 10.6 11.4zm-4.9-7.5c-5.5-.1-11.8.9-11.8 6.3 0 3.3 2.2 4.8 4.7 4.8 3.7 0 6-2.3 6.8-4.6.2-.5.2-1.1.2-1.6v-4.9z"/><path d="m329.8 467.8c0-3.6-.1-6.4-.2-9.1h4.5l.3 4.8h.1c2-3.4 5.3-5.4 9.8-5.4 6.8 0 11.8 5.7 11.8 14.1 0 10-6.1 14.9-12.6 14.9-3.7 0-6.9-1.6-8.6-4.4h-.1v15.1h-5.1v-30zm5 7.4c0 .7.1 1.4.2 2.1.9 3.5 4 5.9 7.5 5.9 5.3 0 8.4-4.4 8.4-10.7 0-5.6-2.9-10.3-8.2-10.3-3.5 0-6.7 2.4-7.7 6.2-.1.7-.3 1.4-.3 2.1v4.7z"/><path d="m373.3 487.2c-7.5 0-13.3-5.5-13.3-14.3 0-9.3 6.1-14.7 13.8-14.7 8 0 13.4 5.8 13.4 14.2 0 10.3-7.2 14.8-13.9 14.8zm.2-3.8c4.8 0 8.4-4.5 8.4-10.9 0-4.7-2.4-10.6-8.3-10.6s-8.5 5.5-8.5 10.8c0 6.1 3.5 10.7 8.4 10.7z"/><path d="m393.1 467.4c0-3.3-.1-6.1-.2-8.7h4.4l.2 5.5h.2c1.3-3.7 4.4-6.1 7.7-6.1.5 0 .9.1 1.4.2v4.7c-.6-.1-1.1-.1-1.8-.1-3.6 0-6.1 2.7-6.8 6.4-.1.7-.2 1.5-.2 2.4v14.8h-5.1z"/><path d="m413.9 473.5c.1 6.8 4.4 9.7 9.5 9.7 3.6 0 5.9-.6 7.7-1.4l.9 3.6c-1.8.8-4.9 1.8-9.3 1.8-8.5 0-13.7-5.7-13.7-14 0-8.4 5-15 13.1-15 9.1 0 11.4 8 11.4 13.1 0 1-.1 1.8-.2 2.4zm14.8-3.6c.1-3.2-1.3-8.2-6.9-8.2-5.2 0-7.4 4.7-7.8 8.2z"/></g></g></svg>